<?xml version="1.0" encoding="UTF-8"?>
<!-- Generated by Pixelmator Pro 3.7 -->
<svg width="1024" height="1024" viewBox="0 0 1024 1024" xmlns="http://www.w3.org/2000/svg">
    <path id="Shape" fill="#080201" fill-rule="evenodd" stroke="none" d="M 248.557312 726.752441 C 233.662521 711.831787 227.320297 704.750977 224.853928 701.390991 C 222.387558 698.031128 218.465378 691.621887 216.137985 687.148315 C 212.750076 680.636353 211.367371 678.900757 209.203171 678.443848 C 207.716431 678.129883 204.925003 677.298828 203 676.596924 C 201.074997 675.895081 196.800003 673.939453 193.5 672.251038 C 190.199997 670.562622 184.350006 666.95166 180.5 664.226563 C 176.649994 661.501404 169.78064 655.389038 165.234772 650.643494 C 160.688889 645.897949 154.838882 638.743896 152.234772 634.745667 C 149.630646 630.747437 145.392426 622.981567 142.816513 617.488037 C 140.240585 611.994629 136.955139 603.450012 135.515518 598.5 C 134.075897 593.549988 132.133469 585.032715 131.19902 579.572693 C 129.94371 572.237915 129.5 563.750427 129.5 547.072693 C 129.5 526.296997 129.72377 523.39209 132.310806 510.583252 C 133.856735 502.929016 136.704803 491.903992 138.639832 486.083252 C 140.57486 480.262451 144.549866 470.549988 147.47319 464.5 C 150.396515 458.450012 155.461349 449.450012 158.728394 444.5 C 161.995422 439.549988 167.523651 431.900024 171.013321 427.5 C 174.502991 423.099976 181.316116 415.625061 186.15361 410.889038 C 190.991104 406.153015 199.006638 399.403015 203.965897 395.889038 C 208.925156 392.375061 216.923141 387.135803 221.739197 384.246277 C 226.555237 381.35675 234.321625 377.387329 238.997818 375.425415 C 243.674026 373.463501 252.110489 370.522766 257.745514 368.890442 C 263.76001 367.148193 272.434052 365.532654 278.749847 364.978455 C 285.475891 364.388184 293.515289 364.386353 300.197784 364.97345 C 306.7276 365.547119 313.834534 366.902039 318.462006 368.455444 C 322.628296 369.854004 327.900818 372.174866 330.178711 373.612793 C 332.456635 375.050781 335.570068 377.595581 337.097443 379.267822 C 338.624817 380.940063 340.375916 384.39856 340.988831 386.953369 C 341.765839 390.192322 341.791718 392.417664 341.07431 394.304565 C 340.501282 395.811768 338.595459 397.677063 336.772705 398.514709 C 334.972717 399.34198 328.604645 400.941956 322.621429 402.070313 C 316.638214 403.198608 306.963226 405.685608 301.121429 407.596863 C 295.279633 409.508179 285.325012 413.557495 279 416.595398 C 272.674988 419.63324 263.01474 425.129578 257.532776 428.809387 C 252.050797 432.489258 243.325485 439.549988 238.143188 444.5 C 232.960892 449.450012 225.915115 457.099976 222.485901 461.5 C 219.056686 465.900024 213.996353 473.440674 211.240692 478.25708 C 208.439835 483.152527 204.444809 492.413025 202.181183 499.25708 C 199.499466 507.365295 197.726273 515.046082 196.93071 522 C 196.190155 528.473267 195.989944 536.910278 196.408661 544 C 196.782227 550.325012 197.680222 558.424988 198.404236 562 C 199.128235 565.575012 200.543839 571.650024 201.550018 575.5 L 203.37944 582.5 L 205.232758 576 C 206.25209 572.424988 208.52504 565.236206 210.283768 560.025024 C 212.042511 554.813721 216.028854 545.294861 219.142319 538.871948 C 222.255798 532.449097 227.375015 523.288696 230.518341 518.515564 C 233.661682 513.742432 238.79866 506.611328 241.933838 502.668579 C 245.069016 498.725891 250.259933 492.665894 253.469208 489.202026 C 256.678467 485.738159 263.398285 479.466492 268.40213 475.265015 C 273.405945 471.063538 281.798737 464.834229 287.052734 461.422058 C 292.306763 458.009949 300.668976 453.177368 305.635468 450.683105 C 310.601959 448.188782 319.35321 444.57959 325.082733 442.662659 C 330.812225 440.745728 341.49707 438.176636 348.826813 436.953613 C 360.58493 434.991577 364.46936 434.795898 381.826813 435.291382 C 394.105835 435.641846 409.204926 436.852173 422 438.511536 C 437.472168 440.518127 445.443115 441.072693 454.5 440.772705 C 463.863373 440.462524 467.512573 439.920654 471.108459 438.306458 C 473.643127 437.16864 476.871796 434.72168 478.283264 432.868835 C 479.694763 431.015991 481.396301 427.325012 482.064484 424.666687 C 482.817627 421.67041 483.039368 417.109436 482.647919 412.666687 C 482.300598 408.725037 480.858276 400.549988 479.442719 394.5 C 478.027191 388.450012 475.335358 376.505981 473.460846 367.957764 C 471.586334 359.409546 468.940491 345.009583 467.581207 335.957764 C 466.221893 326.906006 464.565308 311.228638 463.899933 301.119202 C 463.150238 289.729492 462.937195 274.803833 463.339783 261.877014 C 463.697113 250.403198 464.476807 236.645203 465.072418 231.30365 C 465.975494 223.204773 465.87027 219.70575 464.438873 210.236633 C 463.229553 202.236633 462.885223 195.722839 463.273529 188.190796 C 463.628418 181.307251 464.668304 174.646484 466.193542 169.487366 C 467.496399 165.080383 470.285828 158.392944 472.392242 154.626343 C 474.498657 150.85968 478.807312 145.192688 481.967041 142.032959 C 485.12677 138.87323 490.139282 135.109741 493.105988 133.669617 C 496.072693 132.229492 501.424988 130.307495 505 129.398499 C 509.772705 128.184998 513.891663 127.892883 520.5 128.299316 C 525.450012 128.60376 532.207642 129.706116 535.516968 130.749023 C 538.826233 131.791931 544.578491 134.144043 548.299622 135.975952 C 555.065369 139.306763 555.065369 139.306763 563.782715 135.488892 C 568.577209 133.389099 576.457825 130.416992 581.295105 128.884277 C 586.132385 127.351563 594.874512 125.288086 600.721924 124.298767 C 608.003052 123.066895 616.579041 122.5 627.934143 122.5 C 639.470886 122.5 647.943726 123.070313 655.787231 124.374878 C 667.059814 126.249817 667.059814 126.249817 671.779907 121.358826 C 674.375977 118.668823 679.081482 115.125122 682.236572 113.483948 C 687.475769 110.758728 688.832336 110.5 697.882141 110.5 C 705.990051 110.5 708.597412 110.891724 712.227112 112.655151 C 714.66687 113.840454 718.496399 116.893127 720.737244 119.438782 C 722.978027 121.984497 725.771545 126.109924 726.945007 128.606445 C 728.11853 131.102966 729.794189 135.925354 730.668701 139.322815 C 731.596802 142.928467 732.243896 149.454773 732.223145 155 C 732.191162 163.534973 732.448364 164.903503 734.755005 168.472229 C 737.05072 172.023987 737.403137 172.235657 738.08429 170.472229 C 738.503357 169.387512 739.33197 165.79657 739.92572 162.492371 C 740.51947 159.188171 742.045654 153.112793 743.3172 148.991455 C 744.588745 144.870178 747.317322 138.285583 749.380676 134.359009 C 751.444031 130.432434 755.160339 125.103149 757.639099 122.516174 C 760.117859 119.929199 762.322388 117.989075 762.538086 118.204773 C 762.753845 118.420471 761.859497 121.275146 760.55072 124.548462 C 759.241943 127.821838 756.994507 134.391113 755.556458 139.146973 C 754.118408 143.902771 751.822388 152.677795 750.454163 158.646973 C 749.085938 164.61615 747.682312 172.987488 747.335022 177.25 C 746.975342 181.664246 747.092468 185 747.607117 185 C 748.104004 185 748.971985 183.537476 749.53595 181.75 C 750.099854 179.962524 752.249756 175.091064 754.313538 170.924622 C 756.561768 166.38562 760.706787 160.455505 764.654724 156.129822 C 768.278687 152.15918 771.444885 149.111572 771.690674 149.357361 C 771.936523 149.603149 769.563477 155.585815 766.417358 162.652161 C 763.271179 169.718445 759.622986 178.631531 758.310242 182.459045 C 756.997437 186.286499 755.876099 190.786499 755.818298 192.459045 C 755.751587 194.388916 758.305786 200.666992 762.808899 209.641479 C 767.919434 219.826538 771.437317 225.438416 775.382751 229.700012 C 778.395691 232.954346 785.64679 239.190613 791.496338 243.558472 C 797.345886 247.926331 802.976318 252.100159 804.008362 252.83374 C 805.655151 254.004211 806.901855 253.615356 814.192444 249.65686 C 818.761597 247.175964 826.099976 243.713684 830.5 241.962891 C 834.900024 240.212097 842.549988 237.93512 847.5 236.902954 C 852.93158 235.770386 860.643311 235.021057 866.950012 235.013123 C 873.513184 235.004883 877.046631 235.351379 876.450012 235.944763 C 875.92749 236.464417 871 237.857666 865.5 239.040955 C 860 240.224243 850.099976 243.233948 843.5 245.729187 C 836.900024 248.224487 827 252.507874 821.5 255.247864 C 816 257.987854 811.322571 260.392944 811.105713 260.592468 C 810.888916 260.791931 811.788879 262.567749 813.105713 264.538574 C 815.161621 267.615601 815.92395 268.052856 818.5 267.632629 C 820.150024 267.363464 824.875 266.548523 829 265.821594 C 833.125 265.094727 841.450012 264.5 847.5 264.5 C 854.850037 264.5 860.988586 265.115417 866 266.354675 C 870.125 267.374695 875.677124 269.134705 878.338074 270.265686 C 880.999023 271.396729 884.149048 273.183777 885.338074 274.237 C 887.5 276.151917 887.5 276.151917 885 275.566406 C 883.625 275.244324 879.349976 274.422607 875.5 273.740417 C 871.650024 273.058167 862.424988 272.5 855 272.5 C 847.575012 272.5 837.674988 273.063293 833 273.75177 C 828.325012 274.440247 822.8125 275.473938 820.75 276.048767 C 817.249207 277.024536 817 277.349182 817 280.933777 C 817 284.77356 817 284.77356 823.75 286.029236 C 827.462524 286.719849 833.875 288.374146 838 289.705444 C 842.125 291.036743 848.650024 294.089783 852.5 296.48999 C 856.349976 298.890137 861.075012 302.529419 863 304.577271 C 864.924988 306.625061 865.825012 308.056641 865 307.758484 C 864.174988 307.460388 859.900024 305.766052 855.5 303.993347 C 851.099976 302.220642 845.025024 299.897888 842 298.831604 C 838.974976 297.765381 834.37262 296.480652 831.772522 295.976624 C 829.172424 295.472656 824.192261 294.768066 820.705444 294.410828 C 814.365845 293.761292 814.365845 293.761292 812.201538 298.969177 C 811.011169 301.833496 808.355713 306.949707 806.300476 310.338501 C 804.2453 313.727356 800.759705 318.461182 798.554749 320.858215 C 796.349792 323.255249 792.552795 326.587646 790.116943 328.26355 C 787.681091 329.939453 783.395813 332.179443 780.594055 333.241333 C 777.621094 334.368164 774.351746 336.560669 772.74231 338.50708 C 771.225525 340.341309 767.175537 343.970947 763.74231 346.572876 C 760.309021 349.174805 753.450012 353.213562 748.5 355.547852 C 743.549988 357.882202 735.224976 361.007629 730 362.493225 C 724.775024 363.978882 718.149292 366.245361 715.276245 367.529846 C 711.874878 369.050598 709.346924 371.022583 708.029968 373.182678 C 706.461792 375.754822 706.006653 378.236084 706.003723 384.228943 C 706.000916 390.078552 707.003052 395.792542 710.125244 407.728943 C 712.394104 416.403015 715.540405 428.900024 717.117004 435.5 C 718.693604 442.099976 720.662292 452.886536 721.49176 459.470154 C 722.321289 466.053711 723.02002 476.853699 723.044556 483.470154 C 723.085388 494.502686 723.216614 495.334167 724.627869 493.5 C 725.474182 492.400024 729.769592 485.650024 734.173218 478.5 C 738.576843 471.349976 745.145569 461 748.770386 455.5 C 752.395203 450 757.076111 443.710205 759.172424 441.522705 C 762.352234 438.204651 763.63678 437.545471 766.922913 437.545471 C 770.071411 437.545471 772.631531 438.733398 779.680908 443.465393 C 784.531433 446.721313 790.255615 450.740356 792.401367 452.396545 C 796.212708 455.338379 796.336121 455.362732 797.751465 453.453918 C 798.548279 452.379272 805.852356 440.924988 813.982666 428 C 822.113037 415.075012 830.055481 402.490295 831.632568 400.033936 C 833.209656 397.577637 834.614929 395.102661 834.755371 394.533936 C 834.895813 393.965271 832.862305 392.320679 830.236389 390.879272 C 827.610474 389.437866 822.095581 386.126526 817.981018 383.520752 C 813.866455 380.914978 809.487488 377.681702 808.25 376.335693 C 806.830078 374.791321 806 372.623657 806 370.460022 C 806 368.109497 806.864624 366.093872 808.75 364.049255 C 810.532532 362.116211 815.369934 359.505554 822.5 356.628662 C 828.549988 354.187622 839.349976 349.941772 846.5 347.193542 C 853.650024 344.445251 867.150024 339.190735 876.5 335.516785 C 885.849976 331.842773 897.743774 327.277222 902.930603 325.371033 C 909.638733 322.905701 913.651306 321.991028 916.829956 322.202576 C 920.23938 322.429504 921.731934 323.092651 923.12616 325 C 924.817566 327.313965 925.021729 331.701843 925.869629 383.966736 C 926.373474 415.023438 926.404236 441.436768 925.937988 442.663025 C 925.401123 444.075256 923.633911 445.328979 921.117859 446.082825 C 917.397522 447.19751 916.776367 447.064697 911.328796 443.990295 C 908.129639 442.184814 902.13446 438.449463 898.006104 435.689575 C 893.877747 432.929688 889.723511 430.632935 888.774536 430.585754 C 887.591125 430.526978 882.336975 437.652893 872.050842 453.267395 C 863.801819 465.789429 849.585327 487.389465 840.458618 501.267395 C 831.331848 515.145325 822.32666 527.962524 820.44696 529.75 C 817.830933 532.237732 816.146362 532.99939 813.264709 532.997437 C 810.776611 532.995728 807.634888 531.86969 804 529.676819 C 800.974976 527.851929 795.488342 524.253052 791.807373 521.679443 C 788.126404 519.105713 784.701965 517 784.197449 517 C 783.692932 517 779.512634 522.737488 774.907959 529.75 C 770.303223 536.762512 764.800171 544.897461 762.678894 547.827698 C 760.557678 550.757935 758.974609 553.287109 759.161072 553.447998 C 759.347473 553.609009 761.573792 554.645508 764.108459 555.751465 C 766.643127 556.857422 769.893799 559.305298 771.332214 561.191162 C 772.77063 563.076965 774.470093 566.883911 775.108826 569.651123 C 775.808533 572.682373 775.987244 576.946411 775.558472 580.378418 C 775.118042 583.903564 773.287415 589.204712 770.755432 594.287231 C 767.771362 600.277466 764.747559 604.4151 759.582092 609.57666 C 755.148438 614.006836 750.256226 617.74646 746.5 619.57666 C 741.374756 622.073792 739.31842 622.5 732.395081 622.5 C 725.729248 622.5 723.243469 622.022949 718.395081 619.813416 C 715.014221 618.272644 709.859985 616.895752 706.310059 616.585022 C 702.905579 616.286987 694.386536 614.607361 687.378967 612.852417 L 674.637817 609.661743 L 666.568909 618.500122 C 662.131042 623.361206 653.549988 631.820496 647.5 637.298462 C 641.450012 642.776489 628.917725 652.93335 619.650513 659.869385 C 602.801086 672.480225 602.801086 672.480225 603.298645 676.18988 C 603.572327 678.230164 604.593323 682.059631 605.567566 684.699768 C 606.541809 687.339905 608.007446 690.287476 608.824463 691.25 C 610.059082 692.704468 612.02655 693 620.473511 693 C 626.626587 693 632.643616 693.595886 635.72229 694.510132 C 638.519226 695.340759 643.438416 697.973145 646.653809 700.359863 C 650.404541 703.143982 653.723206 706.748596 655.912598 710.416626 C 657.789551 713.561096 660.085144 718.466248 661.013855 721.316895 C 662.702515 726.5 662.702515 726.5 679.101257 726.718445 C 688.120544 726.838623 710.125 727.410095 728 727.988464 C 745.875 728.566833 767.700012 729.703918 776.5 730.515381 C 785.299988 731.326782 794.75 732.555298 797.5 733.245361 C 800.63623 734.032349 802.5 735.042725 802.5 735.956055 C 802.5 736.821411 800.679688 737.939087 798.012878 738.711182 C 795.544922 739.42572 787.21991 740.664856 779.512878 741.464844 C 771.805786 742.264771 756.049988 743.38208 744.5 743.947754 C 732.950012 744.513428 708.424988 745.435303 690 745.996521 C 671.575012 746.557739 638.275024 747.452759 616 747.985474 C 593.724976 748.518188 552.325012 749.147949 524 749.384766 C 495.674988 749.621704 449.549988 749.460938 421.5 749.027588 C 393.450012 748.594238 347.100006 747.726807 318.5 747.099976 C 289.899994 746.473145 253.899994 745.517151 238.5 744.975464 C 223.100006 744.433838 201.949997 743.302734 191.5 742.461975 C 181.050003 741.621216 168.717941 740.300171 164.095413 739.526367 C 159.4729 738.752563 155.007462 737.436035 154.172226 736.60083 C 152.814087 735.242676 152.909668 734.985535 155.076813 734.167603 C 156.409561 733.664551 160.649994 732.744934 164.5 732.123962 C 168.350006 731.502991 176.449997 730.5755 182.5 730.062866 C 188.550003 729.550171 198.899994 728.876953 205.5 728.566772 C 212.100006 728.256592 224.4879 727.721436 233.028656 727.377563 L 248.557312 726.752441 Z M 538.299683 724.996216 C 545.220947 724.999207 546.92865 724.725342 546.299683 723.713501 C 545.859863 723.005981 541.977905 717.493408 537.673157 711.463501 C 533.368347 705.433594 528.84613 699.195923 527.623718 697.602173 C 525.406982 694.711792 525.387024 694.707458 519.950623 695.936279 C 516.952759 696.613892 513.008545 697.624878 511.185669 698.182983 C 507.871338 699.197571 507.871338 699.197571 513.7677 703.488037 C 517.010742 705.847778 521.071594 709.692444 522.79187 712.031616 C 524.512146 714.37085 526.72522 718.244019 527.709839 720.638672 C 529.5 724.992493 529.5 724.992493 538.299683 724.996216 Z"/>
    <path id="path1" fill="#dd5420" fill-rule="evenodd" stroke="none" d="M 614.690979 730.855286 C 607.985962 730.775635 597.759521 730.369141 591.965576 729.951904 C 586.171692 729.534607 579.481079 728.668091 577.097595 728.026245 C 574.390686 727.297363 570.942078 725.155212 567.910522 722.31958 C 565.24115 719.822632 559.973694 713.666809 556.205078 708.639893 C 552.436462 703.612915 546.18689 695 542.3172 689.5 C 538.447449 684 531.756042 673.875 527.447388 667 C 523.138672 660.125 516.459778 648.430176 512.605347 641.011414 C 508.750885 633.592651 504.31601 623.805664 502.750031 619.262451 C 500.97699 614.118469 499.682587 607.881592 499.319092 602.731079 C 498.998077 598.182068 499.271454 589.849243 499.926636 584.213745 C 500.581787 578.578186 502.494019 568.462158 504.176056 561.733643 C 505.858063 555.005127 507.437073 548.375 507.684937 547 C 507.972382 545.405396 506.482483 547.035034 503.570862 551.5 C 501.060272 555.349976 497.234192 561.875 495.068512 566 C 492.014618 571.816772 489.182587 575.29541 482.449554 581.5 C 477.674805 585.900024 470.557861 592.323364 466.634094 595.77417 C 462.710358 599.224976 456.125 604.037964 452 606.469727 C 447.875 608.901489 441.009613 612.480591 436.743561 614.423218 C 432.477539 616.365906 425.052521 619.0979 420.243561 620.494385 C 415.434601 621.890869 409.223877 623.302734 406.441956 623.631836 C 401.383911 624.230225 401.383911 624.230225 399.197693 616.062012 C 397.99527 611.569458 395.507568 604.655151 393.669495 600.696899 C 391.83139 596.738586 387.548462 589.824951 384.151855 585.33313 C 380.755249 580.841431 375.842133 575.379578 373.233826 573.195801 C 370.625519 571.011963 365.6875 567.581909 362.260468 565.573364 C 358.833435 563.564819 353.099731 560.818726 349.518921 559.470886 C 345.93811 558.123047 339.906158 556.507996 336.114563 555.881836 C 332.036865 555.208435 326.476044 555.037292 322.501648 555.462891 C 318.806091 555.858643 316.168915 556.53302 316.641235 556.961426 C 317.113556 557.389893 320.852814 558.739258 324.950684 559.959961 C 329.048553 561.180664 335.798553 563.900757 339.950684 566.004578 C 344.102814 568.108398 350.511444 572.331421 354.192108 575.389099 C 357.872772 578.446777 363.237396 583.772583 366.113525 587.224243 C 368.989655 590.675903 373.490082 597.976624 376.114471 603.447998 C 379.126587 609.727783 381.32428 615.993958 382.074432 620.441223 C 382.741272 624.394836 383.013428 631.018921 382.694641 635.536621 C 382.382172 639.964233 381.165375 646.155762 379.990631 649.295532 C 378.815887 652.435303 376 657.365723 373.733124 660.252075 C 371.466248 663.138428 367.031708 667.974976 363.878632 671 C 360.725586 674.025024 355.72229 677.966309 352.760284 679.758545 C 349.798248 681.550659 343.127502 684.75177 337.936462 686.87207 C 332.745392 688.99231 322.64856 692.397217 315.499084 694.438477 C 308.349579 696.479736 301.825012 698.389526 301 698.682251 C 299.807007 699.105713 299.909332 699.382996 301.5 700.037048 C 302.600006 700.48938 310.924988 700.876831 320 700.89801 C 329.35199 700.919861 340.832123 700.309448 346.5 699.488892 C 352 698.692627 363.47049 697.732422 371.98996 697.35498 C 382.326355 696.897034 390.249268 697.069092 395.803589 697.872192 C 400.381622 698.534119 406.551849 699.982849 409.515259 701.091553 C 412.478668 702.200317 417.152374 705.129639 419.901276 707.601135 C 422.749298 710.161743 425.955048 714.332764 427.353638 717.297363 C 428.703522 720.158813 430.047882 724.1875 430.341125 726.25 C 430.874268 730 430.874268 730 426.453979 730 C 422.12204 730 421.98114 729.895081 419.404999 724.75 C 417.959198 721.862488 415.642609 717.990173 414.257019 716.144836 C 412.87146 714.2995 409.659271 711.470825 407.118896 709.858948 C 404.578491 708.24707 399.606323 706.033936 396.06958 704.940918 C 392.532837 703.8479 389.232941 703.088989 388.73645 703.254517 C 388.239929 703.420044 390.104279 705.026733 392.879395 706.824951 C 395.654541 708.623169 399.696381 712.166626 401.861267 714.699341 C 404.026184 717.232056 406.772369 721.256348 407.963898 723.642212 C 409.155457 726.028015 409.849457 728.43457 409.506165 728.98999 C 409.162842 729.545532 406.467224 730 403.515869 730 C 398.14975 730 398.14975 730 394.32489 724.271606 C 392.143799 721.005066 388.238586 716.969971 385.238068 714.882568 C 381.640472 712.379822 377.975861 710.844543 373.652191 710.028687 C 370.174042 709.372437 366.112762 708.984985 364.627106 709.167725 C 362.224304 709.463257 362.770203 709.995972 369.569183 713.990234 C 373.77298 716.459839 378.558899 720.18042 380.204559 722.258301 C 381.85025 724.336121 383.445374 726.987061 383.749298 728.149353 C 384.301941 730.262573 384.301941 730.262573 357.90097 729.635498 C 343.380432 729.290588 322.274994 728.772034 311 728.483154 C 299.725006 728.194214 286.899994 727.513306 282.5 726.969971 C 277.731842 726.381165 272.480103 724.980835 269.5 723.50354 C 266.75 722.140381 261.575012 718.533936 258 715.489258 C 254.425003 712.44458 249.095718 707.151428 246.157166 703.726685 C 243.218613 700.302002 238.665894 694.346436 236.040024 690.492065 C 233.414169 686.637695 229.390259 679.754028 227.098022 675.194946 C 224.805786 670.635925 221.631744 662.989502 220.044617 658.202881 C 218.457474 653.41626 216.614853 646.125 215.949875 642 C 215.15509 637.069702 214.903229 627.476196 215.214813 614 C 215.652023 595.090088 215.931076 592.577271 218.8125 581.604248 C 220.530533 575.061646 223.306107 566.121216 224.980423 561.736572 C 226.654739 557.35199 229.808777 550.226318 231.989365 545.901733 C 234.169968 541.577209 238.184036 534.443481 240.909515 530.049133 C 243.634995 525.654785 248.669098 518.333496 252.09642 513.779663 C 255.523727 509.22583 262.866608 500.991028 268.41394 495.47998 C 273.961273 489.968994 281.875 482.947388 286 479.876404 C 290.125 476.805359 297.146393 472.179565 301.603119 469.596741 C 306.059845 467.013977 313.894592 463.095032 319.013672 460.888123 C 324.132751 458.681152 332.366547 455.792786 337.311005 454.469604 C 342.255432 453.146362 350.620697 451.526489 355.900452 450.869812 C 361.957245 450.116516 371.404846 449.897278 381.5 450.275757 C 390.299988 450.605713 406.049988 451.879883 416.5 453.1073 C 426.950012 454.334656 441.350006 455.375183 448.5 455.419434 C 455.732666 455.464294 464.347382 454.912659 467.918213 454.176025 C 471.448242 453.447876 476.398224 451.887268 478.918213 450.708008 C 481.438202 449.528748 485.600128 446.470825 488.166931 443.912598 C 490.733734 441.354431 494.056122 436.849365 495.549988 433.901367 C 498.175018 428.721069 498.243927 428.170837 497.605377 417.490051 C 497.242004 411.411804 495.871887 401.277527 494.560669 394.96936 C 493.249481 388.661194 490.769684 377.424988 489.050049 370 C 487.330383 362.575012 484.809326 349.75 483.447632 341.5 C 482.085968 333.25 480.473358 320.200012 479.864105 312.5 C 479.254852 304.799988 478.923676 286.724182 479.128174 272.331543 C 479.332672 257.938904 479.825623 245.838318 480.223572 245.441345 C 480.621552 245.044312 482.664124 246.270691 484.762634 248.166626 C 486.861176 250.0625 490.735016 253.097656 493.371216 254.911377 C 496.007416 256.725159 500.489838 259.023743 503.332153 260.019409 C 506.174469 261.015076 510.862488 262.256592 513.75 262.77832 C 516.637512 263.30011 518.980835 263.450928 518.957397 263.113464 C 518.93396 262.776062 516.571472 260.712097 513.707397 258.526855 C 510.843323 256.341614 505.866211 252.06665 502.647125 249.026855 C 499.42804 245.987061 494.747131 240.799988 492.245117 237.5 C 489.743134 234.200012 486.016479 227.900024 483.963715 223.5 C 481.91095 219.099976 479.675415 213.25 478.99585 210.5 C 478.165161 207.138611 477.91745 200.584167 478.239899 190.5 C 478.627319 178.384521 479.146698 174.304199 480.940826 169.281799 C 482.162537 165.861816 484.105591 161.864197 485.258728 160.398193 C 486.411865 158.932251 489.722443 156.685974 492.61554 155.406494 C 495.508636 154.127014 500.902618 152.553101 504.602142 151.908813 C 508.301666 151.264587 514.336426 150.989624 518.012695 151.297852 C 521.87738 151.621826 528.029846 153.152405 532.59845 154.926331 C 536.944275 156.613831 543.424988 159.873413 547 162.169861 C 550.575012 164.46637 555.425232 167.438171 557.77832 168.773926 C 560.694214 170.429199 562.854919 171.002258 564.56366 170.573364 C 565.942566 170.227295 567.478394 168.872009 567.976563 167.561584 C 568.828613 165.320618 569.242554 165.21167 574.941223 165.728394 C 578.500183 166.051086 581 165.88446 581 165.324463 C 581 164.80011 578.260132 161.116089 574.911316 157.137756 C 571.562561 153.159485 569.055115 149.298706 569.339233 148.55835 C 569.623352 147.817993 573.375732 146.059326 577.677856 144.650146 C 581.980042 143.240967 589.099976 141.196594 593.5 140.107056 C 597.900024 139.017517 607.125 137.588623 614 136.931702 C 620.893066 136.27301 631.434082 136.003235 637.5 136.3302 C 643.549988 136.65625 652.149536 137.620789 656.610107 138.473511 C 661.070679 139.326294 667.965759 141.127869 671.932556 142.477051 C 675.899292 143.826233 682.399414 146.495483 686.377258 148.408752 C 690.355103 150.322021 697.63501 154.541565 702.55481 157.785522 C 707.47467 161.029541 714.535339 166.567383 718.245239 170.091858 C 723.50592 175.089661 726.054138 178.59082 729.823242 186 C 732.481323 191.224976 737.516724 201.742371 741.013062 209.371887 C 745.631226 219.449341 748.687012 224.684692 752.184509 228.511536 C 754.832458 231.408752 759.070618 234.753052 761.602661 235.943237 C 764.134766 237.133484 770.097473 241.501465 774.85321 245.649841 C 779.608948 249.798279 783.636963 253.560059 783.804382 254.009399 C 783.971863 254.458801 781.516052 255.5802 778.347107 256.501404 C 775.178162 257.422668 770.541199 259.214844 768.042725 260.48407 C 765.544189 261.753235 761.400208 264.643616 758.83374 266.907104 C 756.267334 269.170593 753.229797 272.959534 752.08374 275.326965 C 750.6875 278.211182 750.001221 281.589417 750.003723 285.565735 C 750.006287 289.627686 750.598694 292.446533 751.881348 294.5 C 752.911987 296.150024 755.272827 298.916504 757.127625 300.647766 C 758.982422 302.379028 763.792969 305.437561 767.817749 307.444458 C 771.909424 309.484741 774.971863 311.623901 774.764282 312.296692 C 774.56012 312.958496 771.582886 315.39978 768.148193 317.721741 C 764.713501 320.043762 758.437561 323.035767 754.20166 324.370789 C 749.965759 325.70575 742.909241 327.339905 738.520569 328.002197 C 734.040466 328.678345 727.900879 328.914734 724.520569 328.541321 C 721.20929 328.175476 716.025024 327.171448 713 326.31012 C 709.974976 325.448792 705.2724 323.623413 702.549805 322.253723 C 699.827209 320.884094 695.889709 318.631836 693.799805 317.24884 C 691.7099 315.865784 690 314.151367 690 313.438965 C 690 312.726563 692.362488 311.280457 695.25 310.225403 C 698.137512 309.17041 704.212524 307.035156 708.75 305.48053 C 713.287476 303.925842 717 302.281738 717 301.826904 C 717 301.372131 709.912476 300.993103 701.25 300.98468 C 692.587524 300.976257 684.865662 300.56781 684.090393 300.077026 C 682.912659 299.331482 682.891968 298.675049 683.964722 296.085266 C 684.670776 294.380554 686.429321 292.125671 687.872437 291.074402 C 689.315613 290.023132 690.166382 288.833008 689.763062 288.429688 C 689.359741 288.026367 684.860535 287.343323 679.764893 286.911804 C 674.669189 286.480286 662.400024 285.828613 652.5 285.463745 C 638.590149 284.950989 632.95575 285.127258 627.703979 286.239319 C 621.976624 287.452026 619.460632 287.476746 611.703979 286.396484 C 606.641785 285.691467 596.650024 284.208313 589.5 283.100586 C 582.349976 281.992859 571.368469 280.555786 565.096558 279.907104 C 556.249023 278.992065 551.448059 278.999817 543.676636 279.941711 C 537.401367 280.702271 530.926392 282.241638 526.34082 284.063232 C 522.315186 285.662415 516.654114 288.309631 513.760742 289.945923 C 510.86731 291.582275 506.943634 294.223938 505.041443 295.816345 C 501.582886 298.711609 501.582886 298.711609 505.541443 301.199463 C 507.718658 302.56781 516.700012 307.876282 525.5 312.995972 C 534.299988 318.115723 541.6875 322.46106 541.916687 322.652283 C 542.145813 322.843506 542.05072 323.282593 541.705322 323.628052 C 541.359924 323.97345 538.472412 324.551025 535.288635 324.911499 C 530.934326 325.404541 529.580566 325.930359 529.825134 327.033508 C 530.003967 327.840088 536.688477 341.099976 544.679626 356.5 C 552.670715 371.900024 564.641785 395.299988 571.281921 408.5 C 577.922058 421.700012 586.59613 439.474976 590.557678 448 C 594.519226 456.525024 599.817444 469.433289 602.331543 476.68512 C 604.845581 483.936951 608.016785 495.636963 609.378601 502.68512 C 610.740417 509.733337 612.161194 519.549988 612.535889 524.5 C 612.935242 529.776489 612.714355 538.257813 612.001892 545 C 611.333557 551.325012 610.013123 558.987305 609.067566 562.027344 C 608.122009 565.067322 605.523926 570.692322 603.294128 574.527344 C 601.064331 578.362305 597.318665 585.325012 594.970398 590 C 592.622131 594.674988 589.330444 602.099976 587.655518 606.5 C 584.716064 614.221802 584.595764 615.178101 584.195923 634 C 583.878052 648.962036 584.166321 655.880493 585.434692 663.729248 C 586.343933 669.355347 587.958862 677.284119 589.023438 681.348694 C 590.088074 685.413269 591.831726 690.774536 592.898254 693.262634 C 593.964783 695.750732 596.116455 699.218018 597.679749 700.967651 C 600.522156 704.148804 600.522156 704.148804 615.511047 705.12146 C 627.093079 705.873108 631.465393 706.558105 634.747314 708.13501 C 637.083374 709.257446 640.567261 712.013062 642.489319 714.258545 C 644.411377 716.504028 646.893677 720.772644 648.005493 723.744263 C 649.117371 726.715942 649.769409 729.564087 649.454468 730.073608 C 649.139587 730.58313 647.227051 731 645.204407 731 C 641.957275 731 640.758057 730.192078 634.95697 724.096191 C 629.737 718.610962 627.371277 716.893921 623.443542 715.739746 C 620.724609 714.940796 616.700012 713.993896 614.5 713.63562 C 610.5 712.984131 610.5 712.984131 614 715.698608 C 615.924988 717.19165 619.882324 720.806152 622.794067 723.730835 C 625.70575 726.655518 627.816711 729.487549 627.485046 730.024231 C 627.138062 730.585571 621.704468 730.938538 614.690979 730.855286 Z M 198.059326 624 C 197.541962 624 193.65683 621.215088 189.425705 617.81134 C 185.194595 614.407593 179.280151 608.670044 176.282516 605.06134 C 173.284882 601.452637 168.391144 594.375549 165.407547 589.334534 C 162.42395 584.293518 158.570511 576.86853 156.84436 572.834534 C 155.118195 568.800537 152.898819 563.224854 151.912399 560.444153 C 150.92598 557.663452 149.136993 550.46344 147.936874 544.444153 C 146.253922 536.003235 145.896103 531.64502 146.372482 525.390137 C 146.712189 520.929688 148.391953 511.704712 150.105301 504.890137 C 151.818649 498.075562 155.542282 487.099976 158.380035 480.5 C 161.217789 473.900024 165.717285 464.849243 168.378922 460.387146 C 171.040558 455.92511 175.526291 449.17511 178.347214 445.387146 C 181.168152 441.599243 187.756546 434.20459 192.988083 428.95459 C 198.219635 423.70459 205.199997 417.578186 208.5 415.340271 C 211.800003 413.102417 217.808624 409.606506 221.852478 407.571533 C 225.896347 405.536621 229.437164 404.103821 229.720963 404.387634 C 230.004745 404.671387 227.545959 407.962769 224.256989 411.701782 C 220.968018 415.440796 215.80545 421.875 212.784637 426 C 209.763809 430.125 204.991898 437.549988 202.180405 442.5 C 199.368896 447.450012 195.19931 455.978271 192.914658 461.45166 C 190.630005 466.92511 187.503021 476.383423 185.96579 482.470093 C 184.428574 488.556824 182.695633 496.953552 182.114807 501.129517 C 181.533997 505.305481 180.753494 515.487183 180.380386 523.755493 C 179.940903 533.494751 180.131516 542.605835 180.921661 549.627686 C 181.592468 555.589111 182.977661 564.524109 183.999863 569.483276 C 185.022079 574.442505 186.948563 581.875 188.280945 586 C 189.613327 590.125 192.570175 597.500427 194.85173 602.389893 C 198.349442 609.885498 199 612.2771 199 617.639893 C 199 621.137939 198.576691 624 198.059326 624 Z M 734.443115 607.482178 C 731.753052 607.869385 729.426392 607.505737 727.121521 606.337769 C 725.263306 605.396118 722.902527 603.247437 721.875244 601.562866 C 720.847961 599.878296 720.005798 596.900635 720.003723 594.945801 C 720.001343 592.678894 721.130615 589.608765 723.12146 586.469482 C 726.242981 581.547485 726.242981 581.547485 729.55542 585.523682 C 731.377258 587.710693 734.135132 590.285156 735.68396 591.244751 C 737.232788 592.204346 739.560669 592.991821 740.856995 592.994751 C 742.520508 592.998413 743.048096 592.567688 742.650146 591.530701 C 742.340027 590.722534 741.33551 588.915527 740.417847 587.515015 C 739.184937 585.633362 738.923523 583.879761 739.416382 580.797607 C 739.783203 578.50354 740.781433 575.155518 741.634644 573.357544 C 742.630432 571.259033 744.716797 569.34729 747.461121 568.018799 C 750.984009 566.313477 752.243103 566.141968 754.616333 567.044189 C 756.200317 567.646484 758.284668 568.852661 759.248169 569.724609 C 760.557983 570.909973 760.994446 572.847778 760.978027 577.405029 C 760.964539 581.145874 760.249084 585.044922 759.125549 587.5 C 758.118774 589.700012 755.247925 593.766907 752.745911 596.537537 C 750.243835 599.308228 745.989319 602.776489 743.291443 604.244873 C 740.593628 605.713196 736.611816 607.170044 734.443115 607.482178 Z M 781.636963 320.159485 C 779.820801 321.165405 779.820557 321.112366 781.627869 318.052856 C 782.647522 316.32666 784.610901 314.146118 785.990906 313.207153 C 787.370911 312.26825 789.0625 311.354492 789.75 311.176697 C 790.4375 310.99884 791 311.303589 791 311.853882 C 791 312.404175 789.3125 314.265869 787.25 315.990967 C 785.1875 317.716064 782.661621 319.591919 781.636963 320.159485 Z M 769.119629 280.679199 C 767.628845 281.056885 766.881409 280.880188 767.119629 280.206421 C 767.328857 279.614746 768.560669 277.704285 769.857117 275.960938 C 771.153503 274.217651 774.753479 271.613403 777.857117 270.173828 C 781.961426 268.27002 785.167114 267.548645 789.614136 267.528137 C 793.403687 267.510681 797.110657 268.15918 799.364136 269.233826 C 801.363892 270.187439 803 271.424927 803 271.983826 C 803 272.542725 801.626343 273 799.947388 273 C 798.268494 273 793.666992 273.734131 789.721924 274.631409 C 785.776855 275.528748 780.062988 277.12085 777.024536 278.169495 C 773.986023 279.21814 770.428833 280.347534 769.119629 280.679199 Z M 644.715027 272.963928 C 648.775208 272.984253 654.0224 272.299133 656.715027 271.397217 C 659.346802 270.515625 662.919861 268.725281 664.655212 267.418579 C 666.390564 266.111938 668.796753 263.446838 670.002319 261.496277 C 671.308899 259.382202 672.40918 255.578857 672.72644 252.080017 C 673.11853 247.756348 672.705994 244.404846 671.160156 239.355164 C 670.00592 235.584839 667.534912 230.25 665.669067 227.5 C 663.803223 224.75 660.15564 220.54718 657.563416 218.1604 C 654.971191 215.773621 650.296448 212.630615 647.175171 211.175964 C 642.820618 209.146545 639.986694 208.539856 634.996887 208.568787 C 629.76001 208.599121 627.457764 209.170288 623.17334 211.502197 C 620.24707 213.094849 616.560364 216.029846 614.980652 218.024414 C 613.40094 220.018982 611.238525 223.867004 610.175354 226.575439 C 609.112183 229.283936 607.923889 233.83844 607.534668 236.696594 C 607.044922 240.293091 607.303101 243.526123 608.373291 247.196594 C 609.223755 250.113464 611.265503 254.618164 612.910522 257.207092 C 614.621704 259.900085 618.18396 263.429626 621.235718 265.455872 C 624.169495 267.403809 629.029175 269.881897 632.034912 270.962708 C 635.495911 272.207214 640.145813 272.941101 644.715027 272.963928 Z M 525.229736 240.897644 C 526.181152 240.953918 528.733948 240.290039 530.90271 239.422241 C 533.651428 238.322449 535.350037 236.782104 536.510071 234.337463 C 537.425415 232.40863 537.927917 229.85614 537.626831 228.665222 C 537.325745 227.474365 535.722839 224.364746 534.06488 221.754944 C 532.40686 219.145203 529.126526 214.915344 526.775146 212.355286 C 522.5 207.700623 522.5 207.700623 529 208.425964 C 532.575012 208.82489 537.75 209.580383 540.5 210.104858 C 543.25 210.629333 546.32428 210.9328 547.331787 210.779236 C 548.941956 210.533813 548.578918 209.350403 544.331787 201 C 541.674316 195.775024 539.361511 191.197021 539.192261 190.826782 C 539.02301 190.456482 541.27301 190.71814 544.192261 191.408264 C 547.111511 192.098328 550.579041 193.015198 551.897888 193.445801 C 554.17572 194.189453 554.262695 194.063354 553.63501 190.925171 C 553.271667 189.108215 552.029724 186.019287 550.875183 184.060852 C 549.720703 182.102356 547.156677 178.700012 545.177368 176.5 C 543.198059 174.299988 539.53595 170.767334 537.039307 168.649658 C 534.542664 166.531982 530.275391 163.740967 527.556396 162.447449 C 524.837402 161.15387 520.279236 159.803955 517.427002 159.447632 C 513.421814 158.947205 511.246246 159.241333 507.870636 160.739624 C 505.466766 161.80658 501.781006 164.58783 499.680023 166.920105 C 497.579041 169.252441 495.019836 173.12085 493.992889 175.516602 C 492.965942 177.912354 491.584167 182.625122 490.922302 185.989441 C 490.256866 189.371704 489.96991 195.100952 490.280396 198.804443 C 490.589233 202.488342 491.792297 208.042542 492.953827 211.147034 C 494.115387 214.251587 496.778259 219.441223 498.871338 222.679626 C 500.964386 225.91803 504.662109 230.278198 507.08847 232.368958 C 509.514801 234.459717 512.849976 236.882263 514.5 237.752441 C 516.150024 238.62262 518.849976 239.663269 520.5 240.064941 C 522.150024 240.466614 524.278381 240.84137 525.229736 240.897644 Z M 654.300903 204.959961 C 654.741394 204.981995 653.891846 203.413635 652.412964 201.474792 C 650.934143 199.53595 648.098755 196.669739 646.112122 195.105469 C 644.125427 193.541199 640.225159 191.114319 637.444763 189.712524 C 634.664368 188.310669 630.764832 186.858887 628.779114 186.486389 C 626.506287 186.059998 623.192322 186.395813 619.834351 187.392822 C 616.900452 188.263916 612.841003 190.444336 610.813293 192.238281 C 608.785583 194.032227 606.195068 197.299011 605.05658 199.497742 C 603.91803 201.696533 603.359253 203.619751 603.81488 203.771606 C 604.270447 203.923462 607.085999 202.970642 610.071594 201.654114 C 613.057251 200.337646 617.898254 198.749023 620.829468 198.123779 C 624.645386 197.309875 627.993958 197.280151 632.620239 198.019226 C 636.17395 198.586914 641.200684 199.765503 643.790771 200.638367 C 646.380859 201.511169 649.625 202.831604 651 203.572632 C 652.375 204.31366 653.860413 204.937927 654.300903 204.959961 Z M 716.754639 152 C 715.913025 152 712.811401 150.37085 709.862183 148.379639 C 706.913025 146.388428 703.703735 144.0047 702.730591 143.082458 C 701.753113 142.156128 700.535828 138.792114 700.010803 135.566345 C 699.488098 132.354736 698.851807 129.518433 698.596741 129.263428 C 698.341736 129.008362 697.653137 129.096375 697.066528 129.458862 C 696.479919 129.821411 696 131.864929 696 134 C 696 136.135071 695.560974 138.153259 695.024414 138.484924 C 694.487854 138.816528 692.241333 138.055603 690.032104 136.793945 C 687.426697 135.305969 686.012695 133.787659 686.00769 132.472534 C 686.003479 131.357361 686.702332 129.442322 687.56073 128.216797 C 688.419067 126.991272 690.477173 125.287476 692.134216 124.430603 C 693.79126 123.57373 696.888062 122.848572 699.015991 122.819214 C 701.319519 122.787415 704.304077 123.642883 706.39209 124.933289 C 708.320984 126.125427 710.934387 128.755066 712.199585 130.776978 C 713.464844 132.798828 715.078857 135.791748 715.786377 137.427856 C 716.493896 139.063965 717.345459 143.012024 717.678833 146.201294 C 718.180786 151.004028 718.022095 152 716.754639 152 Z"/>
    <path id="path2" fill="#983214" fill-rule="evenodd" stroke="none" d="M 478.333344 724.866394 C 473.475006 724.792908 467.289124 724.426575 464.586914 724.052307 C 460.683594 723.511719 459.101593 722.686401 456.889587 720.036804 C 455.358276 718.202515 453.427979 715.306396 452.600067 713.600891 C 451.094788 710.5 451.094788 710.5 466.297394 708.22522 C 474.658844 706.97406 483.443329 705.674561 485.818481 705.337402 C 488.193634 705.000305 491.813995 705.226929 493.863708 705.841003 C 495.913391 706.455139 499.450684 708.549866 501.724304 710.495972 C 503.997925 712.442139 506.836182 715.616943 508.031555 717.551025 C 509.226898 719.485168 510.43631 721.952393 510.719086 723.033813 C 511.184692 724.814331 510.709106 725 505.682861 725 C 500.515198 725 499.700226 724.653076 493.863831 719.969116 C 489.933777 716.815002 485.712189 714.422729 482.547607 713.556396 C 479.771423 712.796387 476.149994 711.913574 474.5 711.594604 C 471.5 711.014526 471.5 711.014526 473.986084 712.757324 C 475.353424 713.71582 478.69223 716.299988 481.40564 718.5 C 484.11908 720.700012 486.52533 723.0625 486.752899 723.75 C 487.065155 724.693359 484.999664 724.967224 478.333344 724.866394 Z M 202.629684 656.693604 C 202.528717 656.80011 200.15419 655.633911 197.352966 654.102051 C 194.551743 652.57019 189.474762 649.173767 186.07077 646.554443 C 182.666794 643.935181 176.975113 638.385559 173.422607 634.222046 C 169.870102 630.058533 165.35614 624.230469 163.391602 621.270752 C 161.427048 618.311035 158.089188 612.143799 155.974136 607.565674 C 153.85907 602.987671 150.997437 595.025024 149.61496 589.870972 C 148.232468 584.716919 146.62854 576.97998 146.050674 572.677612 C 145.472809 568.375366 145 558.58783 145 550.927612 C 145 543.267456 145.388046 537 145.86232 537 C 146.336594 537 147.0056 539.362488 147.348984 542.25 C 147.692368 545.137512 148.850586 550.650024 149.922775 554.5 C 150.994965 558.349976 153.294769 564.875 155.033447 569 C 156.772125 573.125 159.514999 579.128784 161.128723 582.341675 C 162.742447 585.554565 166.285385 591.477112 169.001923 595.502808 C 171.71846 599.528564 176.494308 605.580139 179.614929 608.950806 C 182.73555 612.321411 188.338776 617.347229 192.066544 620.119263 C 198.844284 625.15918 198.844284 625.15918 199.552963 632.82959 C 199.942734 637.04834 200.835754 644.099976 201.53746 648.5 C 202.239166 652.900024 202.730667 656.587158 202.629684 656.693604 Z M 404.75 645.396545 C 401 646.090637 401 646.090637 401 635.564331 C 401 625.038086 401 625.038086 403.75 624.479126 C 405.262512 624.171631 410.937103 622.816589 416.360229 621.467896 C 421.783356 620.119141 430.470642 617.199707 435.665344 614.980347 C 440.860046 612.760925 449.093262 608.481201 453.961365 605.469971 C 459.723175 601.905884 467.198303 595.780701 475.378113 587.921021 C 482.289215 581.280396 488.370758 576.111084 488.892639 576.433655 C 489.454498 576.780884 489.068512 579.219604 487.946442 582.412109 C 486.904114 585.377686 485.524506 590.994019 484.880615 594.892822 C 484.236755 598.791626 483.965118 605.355591 484.276978 609.479248 C 484.844025 616.976929 484.844025 616.976929 476.171997 621.092651 C 471.402405 623.356323 462.325012 627.197632 456 629.628906 C 449.674988 632.060181 440.225006 635.424805 435 637.105957 C 429.774994 638.787109 421.674988 641.184082 417 642.432495 C 412.325012 643.680969 406.8125 645.014771 404.75 645.396545 Z M 703.610107 600.896606 C 701.899536 600.839844 698.700012 600.326843 696.5 599.756714 C 694.299988 599.186646 691.481812 598.342163 690.237366 597.880005 C 688.009399 597.052734 688.044678 596.944885 692.539734 590.838867 C 695.050476 587.428223 698.694092 581.795654 700.636719 578.321899 C 702.579407 574.848145 705.406616 569.417114 706.919434 566.25293 C 708.432312 563.088867 710.739807 557.799988 712.047241 554.5 C 713.354614 551.200012 714.484192 548.382141 714.557373 548.238098 C 714.630615 548.094055 716.897644 550.142944 719.595215 552.79126 C 722.292847 555.439514 725.819519 558.536621 727.432312 559.673645 C 730.364563 561.740967 730.364563 561.740967 726.432312 565.095398 C 724.269531 566.940308 720.768066 570.261108 718.651245 572.474915 C 716.534424 574.688721 713.232544 579.604614 711.313599 583.399048 C 709.211914 587.555054 707.605164 592.425659 707.272461 595.649048 C 706.732544 600.880249 706.650635 600.997681 703.610107 600.896606 Z"/>
    <path id="path3" fill="#983214" fill-rule="evenodd" stroke="none" d="M 500.472015 425.694824 C 499.353394 427.21405 499.064606 427.26239 498.649048 426 C 498.377472 425.174988 497.87262 420.173096 497.527191 414.884705 C 497.181732 409.596252 496.060547 401.271301 495.035614 396.384705 C 494.010712 391.498108 491.795593 381.875 490.113159 375 C 488.430725 368.125 485.949005 356.424988 484.598236 349 C 483.247467 341.575012 481.322784 328.075012 480.321136 319 C 479.079376 307.749207 478.5 295.023865 478.5 279 C 478.5 266.075012 478.869843 252.912842 479.321869 249.750793 C 480.143707 244.001587 480.143707 244.001587 485.495514 248.720032 C 490.84729 253.438477 490.84729 253.438477 490.173645 260.969238 C 489.803131 265.111145 489.5 276.417297 489.5 286.093994 C 489.5 297.527222 490.106293 307.8573 491.231445 315.594604 C 492.183716 322.143188 494.525391 335.150879 496.43512 344.50061 C 498.344879 353.850281 501.291626 367.349976 502.983459 374.5 C 504.675293 381.650024 506.494263 390.835022 507.025635 394.911133 C 507.628021 399.531982 507.643982 404.481812 507.068054 408.057983 C 506.560028 411.212585 505.167145 416.065247 503.972778 418.841614 C 502.778412 421.618042 501.203064 424.701965 500.472015 425.694824 Z"/>
    <path id="path4" fill="#377f1b" fill-rule="evenodd" stroke="none" d="M 742.694519 550.99585 C 742.037537 550.99353 739.25 549.851379 736.5 548.457764 C 733.75 547.064087 729.403809 543.861084 726.841736 541.339905 C 724.279724 538.818726 721.354736 535.215942 720.341736 533.333801 C 718.509094 529.928589 718.512695 529.888428 721.064331 525.205811 C 722.474731 522.617615 726.345703 516.224976 729.666504 511 C 732.987366 505.775024 739.287048 495.650024 743.665833 488.5 C 748.044617 481.349976 755.126343 470.17981 759.402954 463.677307 C 765.400513 454.558167 767.558411 451.99707 768.839355 452.477722 C 769.752686 452.820435 774.549988 455.80426 779.5 459.108459 C 784.450012 462.412659 790.686646 466.664978 793.359192 468.558044 C 796.031738 470.451111 799.018372 472 799.996094 472 C 801.214478 472 805.165344 466.572327 812.55249 454.75 C 818.480774 445.262512 828.747742 428.950012 835.368042 418.5 C 841.988342 408.049988 848.446167 397.643311 849.718689 395.373962 C 850.991211 393.104675 851.760681 390.539978 851.42865 389.674622 C 851.096558 388.809265 845.014282 384.691528 837.912415 380.52417 C 830.810608 376.356812 825 372.352356 825 371.625427 C 825 370.898499 826.6875 369.565186 828.75 368.662476 C 830.8125 367.759766 837.674988 365.06488 844 362.673889 C 850.325012 360.282837 867.200012 353.689026 881.5 348.020996 C 895.799988 342.352966 908.439575 337.515991 909.588013 337.272156 C 911.642212 336.835938 911.686707 337.196594 912.338013 359.575989 C 912.702087 372.086975 913 392.873657 913 405.768616 C 913 426.192993 912.806824 429.139832 911.500732 428.638672 C 910.676147 428.322205 905.195129 424.809265 899.32074 420.832031 C 893.44635 416.854858 887.483521 413.442749 886.070007 413.249573 C 883.723145 412.928833 882.379089 414.617554 870.590149 432.699158 C 863.489685 443.5896 848.733826 466 837.799316 482.5 C 826.864868 499 816.63739 514.075012 815.071716 516 C 812.224976 519.5 812.224976 519.5 808.862488 517.595886 C 807.013123 516.548584 800.440369 512.127563 794.256348 507.771362 C 788.056335 503.403809 782.224854 499.99646 781.256348 500.175476 C 780.262817 500.35907 773.531433 509.403381 765.757385 521 C 758.198975 532.275024 750.186523 543.637512 747.951904 546.25 C 745.717346 548.862488 743.351501 550.998108 742.694519 550.99585 Z"/>
    <path id="path5" fill="#e3b866" fill-rule="evenodd" stroke="none" d="M 442 693.522949 C 436.934662 694.030396 436.065338 693.791809 431 690.504272 C 427.975006 688.540894 421.992096 685.825195 417.704681 684.469238 C 413.417236 683.113403 406.892242 681.547974 403.204681 680.990601 C 399.51709 680.433228 393.878204 679.644836 390.673798 679.238647 C 384.847626 678.5 384.847626 678.5 388.080963 674.041748 C 389.859283 671.589661 392.855255 666.465393 394.738678 662.65448 C 396.622101 658.843506 398.669434 653.593872 399.2883 650.988647 C 400.413513 646.251709 400.413513 646.251709 408.456757 644.52478 C 412.880524 643.57489 422.125 641.066406 429 638.950439 C 435.875 636.834351 446.225006 633.342407 452 631.19043 C 457.774994 629.038452 467 625.220215 472.5 622.705444 C 478 620.190735 483.114929 617.990723 483.866516 617.816589 C 484.757141 617.610229 486.021515 619.763672 487.497101 624 C 488.74234 627.575012 491.550323 634.549988 493.73703 639.5 C 495.923767 644.450012 500.532776 653.450012 503.979279 659.5 C 507.425781 665.549988 511.535858 672.428345 513.112793 674.785278 C 515.087952 677.737366 515.594177 679.206787 514.739929 679.508667 C 514.057983 679.749634 506.524994 681.49646 498 683.390442 C 489.475006 685.284485 474.625 688.215149 465 689.903015 C 455.375 691.590881 445.024994 693.219849 442 693.522949 Z M 602.884033 652.91687 C 599.268066 655.039429 599.268066 655.039429 598.64502 651.269653 C 598.302368 649.19635 598.017029 642.746399 598.010986 636.936401 C 598.004944 631.126465 598.669983 621.293213 599.488831 615.084839 C 600.307678 608.876465 601.448792 602.047058 602.024658 599.908447 C 602.776733 597.115356 603.695374 595.906494 605.285828 595.616821 C 606.503601 595.39502 612.224976 594.222778 618 593.011841 C 623.775024 591.800903 633.438904 588.795044 639.475342 586.332153 C 645.51178 583.869263 654.736755 579.030762 659.975342 575.579895 C 665.213867 572.129028 672.424988 566.716187 676 563.551392 C 679.575012 560.386597 684.356079 555.616089 686.624634 552.950317 C 688.893188 550.284546 692.902161 544.367676 695.533508 539.801697 C 698.164856 535.235779 700.904724 530.857605 701.622131 530.072449 C 702.745789 528.842651 703.016541 528.879517 703.576233 530.338074 C 703.933594 531.269287 703.07019 535.736694 701.657532 540.265625 C 700.244934 544.794556 696.808472 553.162598 694.020996 558.861328 C 691.233521 564.560059 686.999573 572.210083 684.612244 575.861328 C 682.224976 579.512573 677.429993 585.875 673.956848 590 C 670.483704 594.125 664.910095 600.442139 661.571045 604.038086 C 658.231934 607.634033 651.542053 614.279419 646.704529 618.805664 C 641.867004 623.331787 633.767029 630.315186 628.704529 634.324219 C 623.642029 638.333313 616.575012 643.679138 613 646.203857 C 609.424988 648.728638 604.872803 651.749451 602.884033 652.91687 Z M 691.380859 404.916687 C 689.246399 404.87085 684.799988 404.186829 681.5 403.396545 C 678.200012 402.606323 671.900024 400.814453 667.5 399.414673 C 663.099976 398.014832 654.401001 394.432922 648.168884 391.454895 C 641.936768 388.476807 632.26178 383.280884 626.668884 379.908325 C 621.075989 376.535767 612.450012 370.955444 607.5 367.507629 C 602.549988 364.059814 597.375 360.319702 596 359.19635 C 593.5 357.153809 593.5 357.153809 600.492126 358.612305 C 604.33783 359.414429 611.762817 360.701782 616.992126 361.473022 C 622.221497 362.244324 631.674988 363.159607 638 363.507019 C 644.325012 363.854431 655.799988 363.651733 663.5 363.056519 C 671.200012 362.461365 681.683289 361.685913 686.796143 361.333313 C 692.437927 360.944275 696.477722 361.077698 697.072693 361.672668 C 697.713257 362.313232 697.167542 364.237549 695.498535 367.223694 C 693.852295 370.169128 692.729919 374.086365 692.342041 378.240356 C 692.006226 381.836548 692.278625 387.739929 692.958191 391.593201 C 693.628174 395.391907 694.420532 399.962524 694.718994 401.75 C 695.25531 404.961914 695.216187 404.999023 691.380859 404.916687 Z"/>
    <path id="path6" fill="#fde9b8" fill-rule="evenodd" stroke="none" d="M 501.57489 298.706543 C 507.716858 293.389526 513.549988 289.850891 518.5 287.412598 C 523.450012 284.974304 530.650024 282.196472 534.5 281.239624 C 539.4422 280.011414 545.321594 279.517822 554.5 279.560608 C 564.540588 279.607422 573.874146 280.59436 595.5 283.896057 C 610.900024 286.247192 633.82605 289.860474 646.446716 291.925598 C 659.067444 293.990662 669.544312 296.132996 669.72876 296.686218 C 669.930298 297.290894 665.962708 297.94928 659.782043 298.336731 C 654.126892 298.691223 645.674988 299.65802 641 300.485107 C 636.325012 301.312256 629.571228 302.828613 625.991577 303.854858 C 622.411926 304.881042 616.28479 307.064453 612.375732 308.706848 C 608.466675 310.349304 602.04895 313.853088 598.114075 316.493103 C 594.179199 319.133118 591.124634 321.458008 591.326172 321.659485 C 591.52771 321.861023 594.138123 320.944336 597.127136 319.622498 C 600.11615 318.300598 607.272827 315.792114 613.030884 314.048035 C 618.788879 312.304016 627.407959 310.007324 632.184448 308.944214 C 636.960876 307.881165 643.935852 306.59613 647.684448 306.088623 C 651.432983 305.581055 658.115967 304.865234 662.535461 304.497803 C 670.551147 303.831482 670.574585 303.836548 672.035461 306.566284 C 672.840942 308.07135 673.5 309.660461 673.5 310.097656 C 673.5 310.534851 671.351685 312.03479 668.725952 313.430908 C 666.100281 314.827026 661.558716 317.500183 658.633728 319.371338 C 655.708679 321.242432 650.368713 325.529846 646.767212 328.898926 C 643.165649 332.268005 638.394897 337.831482 636.165527 341.262268 C 633.936096 344.692993 631.77179 348.400024 631.355896 349.5 C 630.940002 350.599976 634.859741 347.546875 640.066406 342.715332 C 645.27301 337.883728 653.575623 331.037292 658.516541 327.500977 C 663.457458 323.964661 669.646912 319.897034 672.270935 318.461853 C 677.041931 315.852356 677.041931 315.852356 681.872375 320.176208 C 684.529175 322.55426 689.582214 326.199402 693.10144 328.276489 C 696.620667 330.353516 702.345093 332.936462 705.822388 334.016296 C 709.299683 335.09613 714.924683 336.430786 718.322388 336.982239 C 721.720093 337.533691 727.424988 337.987671 731 337.991089 C 734.575012 337.994507 741.099976 337.361633 745.5 336.584778 C 749.900024 335.807922 755.490601 334.484253 757.923645 333.643311 C 762.347229 332.114319 762.347229 332.114319 759.423645 334.967407 C 757.815613 336.53656 753.723389 339.59259 750.329773 341.758484 C 746.936096 343.924377 741.536133 346.654419 738.329773 347.825195 C 735.123413 348.995972 726.650024 351.572815 719.5 353.551453 C 712.349976 355.530151 704.610229 358.196167 702.300476 359.475952 C 699.990723 360.755737 697.963074 361.38916 697.794495 360.883545 C 697.613953 360.341919 690.545532 360.622131 680.58844 361.565613 C 671.29364 362.446289 656.896301 363.240723 648.594421 363.330994 C 640.29248 363.421204 628.775024 362.906433 623 362.186951 C 617.224976 361.467468 609.349976 360.207947 605.5 359.388062 C 601.650024 358.568176 596.924988 357.626404 595 357.295227 C 591.942017 356.769165 592.699829 357.528076 601 363.304016 C 606.224976 366.940002 615.672546 373.196594 621.994507 377.207458 C 628.316467 381.218384 638.53949 387.045593 644.712341 390.156799 C 650.885132 393.268066 660.209595 397.237488 665.43335 398.977783 C 670.657104 400.718079 679.092163 402.994507 684.177917 404.036438 C 690.957092 405.425354 693.612915 405.626343 694.130127 404.78949 C 694.518066 404.161682 695.772278 406.764771 696.917236 410.574036 C 698.062195 414.383301 700.527588 423.607788 702.395996 431.072937 C 704.264343 438.538025 706.627075 450.456848 707.646484 457.559204 C 708.798401 465.584351 709.5 476.181335 709.5 485.553528 C 709.5 494.410522 708.810791 505.352722 707.829956 512.0672 C 706.911499 518.355225 705.6203 524.849976 704.960754 526.5 C 704.224792 528.341309 703.569946 528.980042 703.265381 528.153809 C 702.987549 527.399902 700.992493 530.039978 698.731262 534.153809 C 696.510376 538.194214 693.020142 543.974976 690.975159 547 C 688.930176 550.025024 683.664124 555.930176 679.272766 560.122681 C 674.88147 564.315063 667.961121 570.094055 663.894287 572.964783 C 659.827393 575.83551 653.125 579.885986 649 581.965942 C 644.875 584.045837 638.125 586.961182 634 588.444397 C 629.875 589.927612 623.575012 591.82959 620 592.670898 C 616.424988 593.512329 611.09845 594.535522 608.163147 594.944763 C 603.094177 595.651489 602.848877 595.58374 603.275635 593.59436 C 603.522766 592.442505 604.705872 586.325012 605.904785 580 C 607.103699 573.674988 608.723267 565.791016 609.503906 562.47998 C 610.284485 559.168945 611.473999 551.176025 612.147156 544.717773 C 613.102112 535.556641 613.109741 530.285828 612.181824 520.737854 C 611.52771 514.007019 610.290405 505.188354 609.432251 501.140869 C 608.574036 497.093323 606.798767 490.078491 605.487122 485.552429 C 604.175537 481.026306 600.723633 471.287903 597.816345 463.91156 C 594.908997 456.535217 586.208191 437.900024 578.481262 422.5 C 570.754333 407.099976 556.710083 379.650024 547.27179 361.5 C 537.833557 343.349976 529.81311 327.712524 529.448669 326.75 C 528.889099 325.272278 529.386047 324.998291 532.643005 324.989014 C 534.764343 324.982971 538.18042 324.700195 540.234314 324.360718 C 543.968567 323.743408 543.968567 323.743408 535.734314 319.011658 C 531.205444 316.409241 523.450012 311.892151 518.5 308.973816 C 513.549988 306.05542 507.716858 302.551392 505.537445 301.187073 L 501.57489 298.706543 Z M 763.233398 237 C 762.720032 237 760.545044 235.720947 758.400024 234.157593 C 756.255005 232.594299 752.679199 229.328857 750.453796 226.901001 C 747.688843 223.884644 744.891663 218.847168 741.620728 210.993408 C 738.987915 204.672058 734.364685 194.844116 731.346741 189.153503 C 728.328796 183.462952 726.04364 178.622986 726.268616 178.39801 C 726.493591 178.173096 728.498596 180.148499 730.724182 182.787903 C 732.949707 185.427307 737.030823 191.049072 739.793274 195.280762 C 742.555786 199.51239 747.394104 208.042908 750.545105 214.237366 C 753.696167 220.431824 757.900085 227.716125 759.887146 230.424683 C 761.874207 233.13324 763.650024 235.720703 763.833313 236.174683 C 764.016663 236.628601 763.746704 237 763.233398 237 Z M 562.139221 170.926636 C 560.670166 170.885803 557.012756 168.972351 553.890198 166.611023 C 550.80481 164.277771 544.635376 160.472412 540.180298 158.154602 C 535.72522 155.836853 529.1698 153.22229 525.612671 152.344421 C 521.131775 151.238708 516.434998 150.891418 510.32254 151.213867 C 503.836212 151.55603 499.800446 152.383301 495.081665 154.337952 C 491.551605 155.800293 488.476593 156.809937 488.248352 156.581665 C 488.020081 156.353394 489.716736 154.283264 492.018707 151.981323 C 494.320648 149.679321 498.745667 146.616089 501.852051 145.174011 C 506.011169 143.243225 509.577057 142.44989 515.379395 142.164307 C 520.449707 141.914734 525.619141 142.347412 529.879395 143.377869 C 533.520752 144.258667 540.549988 146.994141 545.5 149.456787 C 550.450012 151.919434 557.200012 155.958801 560.5 158.433228 C 563.799988 160.907593 567.059998 163.959839 567.744507 165.216064 C 568.82251 167.194519 568.707397 167.73407 566.883728 169.25 C 565.72583 170.212524 563.590759 170.96698 562.139221 170.926636 Z"/>
    <path id="path7" fill="#ffffff" fill-rule="evenodd" stroke="none" d="M 188.637177 901 C 183.157486 901 180.720428 900.577576 179.571426 899.428589 C 178.277924 898.135071 178 895.113647 178 882.345215 C 178 873.813721 177.619553 866.983337 177.154572 867.166687 C 176.689575 867.349976 175.084534 868.317566 173.587799 869.316772 C 172.091064 870.31604 168.455536 871.639282 165.508865 872.257385 C 161.509338 873.096313 158.573517 873.087708 153.927094 872.223633 C 150.318573 871.552551 146.047821 869.919128 143.764435 868.336792 C 141.598267 866.835571 138.562195 863.770569 137.017624 861.525635 C 135.473038 859.28064 133.493561 855.033691 132.618774 852.088013 C 131.743988 849.142273 130.757538 843.979919 130.426651 840.616089 C 130.095764 837.252197 130.298538 831.630737 130.877258 828.123901 C 131.455978 824.617065 133.243546 818.992065 134.84964 815.623901 C 136.455719 812.255737 139.509094 807.741089 141.634903 805.591248 C 143.760712 803.441406 147.86116 800.596558 150.747025 799.269287 C 153.632889 797.942017 158.391632 796.608643 161.322006 796.306213 C 164.777191 795.949585 168.590988 796.320557 172.172119 797.361694 C 175.20929 798.244629 178.834869 800.107605 180.228943 801.501709 C 182.763641 804.036377 182.763641 804.036377 186.281815 800.518188 C 188.972733 797.827271 190.627274 797 193.318207 797 C 195.253235 797 197.548233 797.273132 198.418213 797.606995 C 199.831619 798.149353 200 803.574585 200 848.571777 C 200 897.335632 199.938782 898.962402 198.065735 899.964844 C 197.001892 900.53418 192.759048 901 188.637177 901 Z M 90 872.577026 C 83.230011 872.832397 77.334732 872.478516 73.404755 871.580933 C 70.052376 870.815186 64.983894 869.188293 62.141468 867.965515 C 58.47612 866.388733 56.797417 865.041016 56.368114 863.330566 C 56.035194 862.004089 56.332695 858.799561 57.029224 856.209412 C 57.725754 853.619263 58.867134 850.071045 59.56562 848.324585 C 60.835594 845.149231 60.835594 845.149231 68.667801 848.52771 C 73.409363 850.572998 79.064941 852.165161 83 852.562378 C 86.944061 852.96051 91.191925 852.761597 93.80275 852.056519 C 96.169258 851.417419 98.981758 850.01825 100.05275 848.947266 C 101.250595 847.74939 102 845.634644 102 843.452271 C 102 840.910645 101.258179 839.217041 99.384232 837.480286 C 97.945564 836.146973 93.119217 833.648804 88.659027 831.928711 C 84.198822 830.20874 77.937614 827.48291 74.745224 825.871399 C 71.552826 824.259888 67.156784 821.103027 64.976242 818.856079 C 62.795696 816.609192 60.446503 812.909912 59.755806 810.635376 C 59.065113 808.360962 58.555378 803.246338 58.623062 799.269592 C 58.718948 793.635864 59.335068 790.835449 61.413147 786.588013 C 62.880009 783.589844 65.729095 779.689026 67.744453 777.919495 C 69.759811 776.150024 73.904274 773.544189 76.954369 772.128845 C 81.621361 769.963196 84.277458 769.494507 93.718628 769.170776 C 103.013809 768.852112 106.122147 769.146057 111.848228 770.885254 C 115.649261 772.039795 119.759186 773.794189 120.981392 774.783813 C 123.20359 776.583252 123.20359 776.583252 120.054344 785.505737 C 118.322258 790.413086 116.770996 794.562378 116.607086 794.726257 C 116.443176 794.890137 114.200241 794.091431 111.622772 792.951294 C 109.045303 791.811157 103.785217 790.614136 99.933678 790.29126 C 95.707672 789.93689 91.379761 790.168823 89.019089 790.876099 C 86.867599 791.520752 84.157715 793.25531 82.997124 794.730774 C 81.54612 796.575439 81.072556 798.207886 81.481125 799.956726 C 81.807922 801.35553 83.159912 803.470764 84.485558 804.657227 C 85.811195 805.843689 90.631752 808.247742 95.197906 809.999512 C 99.764053 811.751343 105.62986 814.335449 108.233017 815.742004 C 110.836182 817.14856 114.602966 819.919556 116.603653 821.899658 C 118.604332 823.879883 121.047852 827.358521 122.033691 829.630127 C 123.019524 831.901611 124.111893 836.176636 124.461174 839.130066 C 124.883293 842.699463 124.571472 846.466125 123.531189 850.36377 C 122.670418 853.588867 120.767502 857.895081 119.302483 859.933167 C 117.837471 861.971313 114.945282 864.85614 112.875412 866.343994 C 110.805534 867.831848 107.174301 869.753845 104.806 870.615112 C 102.331032 871.515137 96.035103 872.349426 90 872.577026 Z M 234.624268 872.956116 C 231.805923 872.931946 227.873276 872.330872 225.885071 871.620361 C 223.896866 870.909851 220.948898 869.387756 219.334061 868.237854 C 217.719208 867.088013 215.070923 863.751587 213.44899 860.823608 C 210.5 855.5 210.5 855.5 210.191559 827.672852 C 209.966324 807.351563 210.201645 799.461975 211.064011 798.422852 C 211.91922 797.392395 214.638062 797 220.92244 797 C 226.338318 797 230.051056 797.45105 230.800003 798.200012 C 231.663254 799.063232 232 805.807129 232 822.232117 C 232 839.901001 232.327454 845.847961 233.448044 848.529907 C 234.244461 850.435974 236.02034 852.507813 237.39444 853.13385 C 238.768539 853.759949 241.939056 854.041565 244.440018 853.759644 C 247.215134 853.446838 250.353714 852.204834 252.493622 850.572632 C 256 847.898193 256 847.898193 256 823.649109 C 256 806.122009 256.332642 799.067383 257.200012 798.200012 C 257.937683 797.462341 261.550568 797 266.577576 797 C 272.053467 797 275.110352 797.428101 275.830444 798.295715 C 276.545532 799.157349 276.954346 811.202698 277.05069 834.252319 C 277.130371 853.315796 277.008026 869.475952 276.778748 870.163696 C 276.513519 870.959473 273.681396 871.565674 268.990295 871.830688 C 262.256714 872.211182 261.458557 872.049561 259.76947 869.963623 C 258.752441 868.707642 257.531738 866.985657 257.056824 866.137024 C 256.312988 864.807922 255.660065 864.963074 252.346649 867.255981 C 250.230988 868.720093 246.53093 870.61145 244.124268 871.458984 C 241.717621 872.306519 237.442627 872.980225 234.624268 872.956116 Z M 323.200775 872.914917 C 320.065338 872.868164 315.197571 872.271118 312.383514 871.588196 C 309.569427 870.905273 305.243652 869.160767 302.77066 867.711487 C 300.297668 866.262207 296.798737 863.395874 294.99527 861.341797 C 293.191803 859.287781 290.612061 855.110474 289.262512 852.058838 C 287.735291 848.605591 286.599792 843.747437 286.255341 839.193115 C 285.949768 835.152832 286.242126 828.852722 286.908173 825.125854 C 287.571594 821.413513 289.388794 816.144775 290.94632 813.417603 C 292.503876 810.69043 295.767029 806.625977 298.197754 804.385376 C 300.62851 802.144775 304.840912 799.453979 307.558655 798.405762 C 311.103241 797.038696 314.902649 796.519287 321 796.568115 C 327.684937 796.621704 330.501404 797.119629 334.189636 798.899902 C 336.768921 800.144897 340.887573 803.310547 343.342194 805.934692 C 346.385956 809.188782 348.392578 812.56958 349.652557 816.566772 C 350.718811 819.94928 351.5 825.40271 351.5 829.463745 C 351.5 833.333679 351.176636 837.287476 350.781372 838.25 C 350.12912 839.838379 348.12085 840 329.031372 840 C 308 840 308 840 308 842.46521 C 308 843.821045 309.455475 846.588135 311.234375 848.614136 C 313.013275 850.640259 315.923828 852.905884 317.702271 853.648926 C 319.480682 854.392029 323.610138 855 326.878784 855 C 330.147461 855 335.658447 854.117126 339.125427 853.038086 C 343.934174 851.541443 345.609467 851.363586 346.189819 852.288086 C 346.608246 852.954651 347.47467 855.823853 348.115204 858.664185 C 348.755768 861.504456 349.032318 864.473389 348.729767 865.261841 C 348.427246 866.050232 346.226776 867.607422 343.839844 868.72229 C 341.452942 869.837158 337.115356 871.255676 334.200775 871.874634 C 331.286194 872.493591 326.336212 872.961731 323.200775 872.914917 Z M 398 872.57251 C 392.973663 872.799866 387.409058 872.423584 384.383514 871.651733 C 381.569427 870.933838 377.193024 869.131104 374.658142 867.645569 C 372.123291 866.160034 368.479126 862.888184 366.560028 860.374817 C 364.64093 857.86145 362.075806 853.261475 360.859741 850.152527 C 359.077606 845.596558 358.648682 842.463074 358.648682 834 C 358.648682 825.488525 359.074097 822.411682 360.894958 817.753357 C 362.183228 814.45752 365.201813 809.752014 367.9729 806.720032 C 370.807739 803.618286 374.982635 800.41394 378.074768 798.966675 C 382.473328 796.907959 384.846344 796.502136 392.422485 796.512817 C 399.811432 796.523315 402.360748 796.947388 406.127289 798.792664 C 408.672302 800.03949 412.447479 802.703735 414.516571 804.713257 C 416.585693 806.722717 419.321625 810.64679 420.596466 813.433411 C 422.067841 816.649658 423.148468 821.42157 423.55545 826.5 C 423.948578 831.405212 423.781281 835.563843 423.123047 837.25 C 422.0495 840 422.0495 840 400.916351 840 C 379.783173 840 379.783173 840 380.436707 842.75 C 380.796173 844.262512 381.885254 846.597168 382.856903 847.938232 C 383.828583 849.279236 385.803558 851.257385 387.245758 852.334167 C 389.095367 853.715088 392.023407 854.427368 397.18396 854.751648 C 402.934021 855.112976 405.868103 854.748169 410.891663 853.047363 C 414.407074 851.857117 417.634979 851.24707 418.064819 851.69165 C 418.494629 852.13623 419.428558 855.349365 420.140167 858.832031 C 421.413971 865.065918 421.396301 865.192444 418.999573 867.000305 C 417.660614 868.010315 414.300476 869.590698 411.532562 870.512329 C 408.764648 871.43396 402.674988 872.361084 398 872.57251 Z M 525.200806 872.934204 C 522.065308 872.89801 517.025024 872.214233 514 871.414673 C 510.975006 870.615173 506.081451 868.282288 503.125458 866.230469 C 499.733917 863.876404 496.496948 860.453308 494.352356 856.952881 C 492.155792 853.367676 490.376953 848.593018 489.322784 843.452881 C 488.000641 837.005981 487.889313 834.116943 488.734924 828.196533 C 489.359314 823.825134 491.027008 818.356201 492.888977 814.573975 C 494.599976 811.09845 497.938782 806.46759 500.308594 804.283203 C 502.678375 802.098816 506.840912 799.453979 509.558655 798.405762 C 512.840454 797.140015 517.018799 796.5 522 796.5 C 526.125 796.5 531.479126 797.156494 533.897949 797.958862 C 536.316895 798.761292 540.680908 801.597534 543.595825 804.261597 C 547.335205 807.679199 549.480835 810.669128 550.882813 814.41626 C 551.975647 817.337158 553.170166 822.381836 553.537231 825.626587 C 553.933289 829.127014 553.740723 833.249023 553.063843 835.763062 C 551.922913 840 551.922913 840 530.961426 840 C 510 840 510 840 510 842.497131 C 510 843.946167 511.468353 846.619507 513.498596 848.86676 C 515.816895 851.4328 518.522339 853.166321 521.517883 854.005005 C 524.145874 854.740784 528.679443 855.058716 532.346191 854.764404 C 535.81543 854.485962 540.333008 853.461304 542.385254 852.487427 C 544.996094 851.248474 546.432678 851.032715 547.168823 851.768799 C 547.747498 852.347473 548.826538 855.42627 549.566772 858.610596 C 550.578369 862.962036 550.629639 864.741333 549.773193 865.773254 C 549.146545 866.52832 547.028687 867.957825 545.066895 868.94989 C 543.105103 869.941895 539.115356 871.259033 536.200806 871.876831 C 533.286194 872.494568 528.336182 872.970398 525.200806 872.934204 Z M 711.5 872.599548 C 705.363098 872.869263 700.758057 872.506836 697.024231 871.460266 C 694.012573 870.616089 689.662842 868.820374 687.358215 867.469788 C 685.053528 866.119141 681.558716 863.134155 679.59198 860.836426 C 677.625183 858.538696 675.076843 854.14856 673.928955 851.080566 C 672.781067 848.012634 671.592773 842.530518 671.288269 838.898132 C 670.983704 835.265747 671.231873 829.470337 671.839722 826.01947 C 672.447632 822.568604 673.948975 817.665039 675.176147 815.122559 C 676.40332 812.5802 679.322266 808.448059 681.662659 805.940186 C 684.003052 803.432251 688.26239 800.282227 691.127808 798.940186 C 695.451843 796.914917 697.881592 796.5 705.418823 796.5 C 713.364746 796.5 715.220886 796.854004 720.266541 799.331665 C 724.076965 801.202759 727.22229 803.720764 729.53894 806.754761 C 731.467163 809.28009 733.718628 813.664124 734.542175 816.497009 C 735.365723 819.329956 736.116699 824.539551 736.210999 828.073853 C 736.305359 831.608276 736.062866 835.737488 735.672241 837.25 C 734.961914 840 734.961914 840 713.980957 840 C 693 840 693 840 693 842.46521 C 693 843.821045 694.455444 846.588135 696.234375 848.614136 C 698.013306 850.640259 700.923828 852.905884 702.702271 853.648926 C 704.480713 854.392029 708.664429 855 711.999451 855 C 715.478271 855 720.672363 854.120972 724.184204 852.937988 C 728.780884 851.389404 730.489319 851.173767 731.044434 852.071838 C 731.450928 852.729614 732.355469 855.962891 733.054504 859.256836 C 734.278442 865.02417 734.242493 865.308472 732.084534 866.936218 C 730.852051 867.865906 727.741333 869.431458 725.171814 870.415283 C 722.408203 871.473389 716.823914 872.36554 711.5 872.599548 Z M 764.782104 872.923157 C 761.876953 872.880859 757.802795 872.318359 755.728455 871.673157 C 753.654114 871.027954 750.390503 869.242432 748.476074 867.705444 C 746.561584 866.168457 744.096252 863.148865 742.99762 860.9953 C 741.669189 858.391479 741.007385 855.140015 741.021973 851.289856 C 741.035828 847.640503 741.798157 843.836365 743.084045 841 C 744.206116 838.525024 746.108704 835.442993 747.312073 834.151001 C 748.515442 832.85907 751.75 830.630127 754.5 829.197754 C 758.822449 826.946411 761.039795 826.538208 770.862732 826.185242 C 782.225525 825.776978 782.225525 825.776978 781.644775 822.198242 C 781.325317 820.22998 780.176331 817.731934 779.091431 816.646973 C 777.762329 815.317871 775.297913 814.523376 771.536804 814.211487 C 767.145142 813.84729 764.358704 814.330688 758.470032 816.478455 C 754.353394 817.979858 750.400513 818.983948 749.685913 818.709717 C 748.971313 818.435486 747.592651 815.355408 746.622253 811.865051 C 744.857849 805.519043 744.857849 805.519043 747.379822 803.349731 C 748.766846 802.156616 752.467529 800.220459 755.603516 799.04718 C 758.739441 797.87384 764.836853 796.641479 769.153198 796.308655 C 775.021057 795.856201 778.622498 796.142334 783.427063 797.442871 C 787.676636 798.593201 791.282043 800.405518 794.072449 802.794006 C 796.393188 804.780457 799.227661 808.451904 800.371338 810.952881 C 802.182617 814.913696 802.491943 817.820923 802.770325 833.5 C 803.062622 849.962341 803.299622 851.996826 805.544922 857.315918 C 806.895203 860.514648 808 864.420044 808 865.994507 C 808 867.56897 807.292847 869.56427 806.428589 870.428589 C 805.302429 871.554749 802.893921 872 797.928589 872 C 792.505432 872 790.619751 871.600708 789.25 870.162231 C 788.287476 869.151489 787.00415 867.469116 786.398132 866.423584 C 785.338989 864.596313 785.145264 864.626953 781.398132 867.215088 C 779.25415 868.695862 775.826965 870.603271 773.782104 871.453735 C 771.737305 872.304199 767.687256 872.965454 764.782104 872.923157 Z M 839.581909 872.569336 C 835.136841 872.749146 829.80542 872.539307 827.734253 872.103027 C 825.663086 871.666687 822.288086 870.753174 820.234253 870.072998 C 818.18042 869.392761 815.429199 867.966187 814.120361 866.902832 C 812.160278 865.310364 811.829956 864.311035 812.246704 861.234741 C 812.524963 859.180664 813.480835 855.763428 814.370911 853.64093 C 815.648926 850.59314 816.358154 849.936768 817.744568 850.518799 C 818.710022 850.924133 821.75 852.164551 824.5 853.27533 C 827.633728 854.541077 832.00885 855.33313 836.221619 855.397461 C 841.919861 855.484375 843.282593 855.160767 845.172241 853.271606 C 847.010071 851.434265 847.234436 850.57019 846.450623 848.348328 C 845.644836 846.064209 843.919922 845.082397 835.131348 841.90564 C 829.42865 839.844299 823.128662 836.858643 821.131348 835.270874 C 819.134094 833.683105 816.487488 830.402344 815.25 827.980103 C 813.882751 825.303955 813 821.77478 813 818.984436 C 813 816.060791 813.931213 812.523926 815.563416 809.248535 C 817.313599 805.73645 819.564636 803.1521 822.658813 801.1026 C 825.151428 799.451538 829.585144 797.564941 832.511536 796.910034 C 835.440002 796.254639 840.904968 795.954224 844.666138 796.241943 C 848.424744 796.529358 854.087524 797.749878 857.25 798.954102 C 862.2771 800.868408 862.999329 801.480408 862.994446 803.821838 C 862.991333 805.2948 862.50177 808.299988 861.906494 810.5 C 861.311218 812.700012 860.294678 815.052979 859.647522 815.728882 C 858.72113 816.696289 857.107361 816.406982 852.060669 814.36853 C 847.275818 812.435791 844.52533 811.906128 841.213196 812.279419 C 838.593628 812.574707 835.928894 813.626648 834.70813 814.847412 C 832.977295 816.578247 832.82135 817.3125 833.751099 819.353088 C 834.57135 821.153259 836.645691 822.377808 841.680969 824.034424 C 845.431396 825.268372 850.75 827.388794 853.5 828.74646 C 856.25 830.104126 859.792908 832.404053 861.373169 833.857422 C 862.953369 835.310852 864.865906 837.948059 865.623169 839.717896 C 866.380432 841.487732 866.990112 845.53772 866.978027 848.717896 C 866.964844 852.196716 866.218384 856.093384 865.104126 858.5 C 864.085571 860.700012 861.957947 863.713379 860.376099 865.196411 C 858.79425 866.679382 855.286865 868.871399 852.581909 870.067505 C 849.207458 871.559692 845.127197 872.34491 839.581909 872.569336 Z M 912 872.538452 C 907.325012 872.740906 901.634766 872.509094 899.355042 872.023315 C 897.075317 871.537598 892.969849 870.004944 890.231689 868.617432 C 887.493591 867.229919 883.411316 864.002075 881.159973 861.444458 C 878.908691 858.88678 876.063049 854.252991 874.836426 851.147095 C 872.996948 846.489563 872.599915 843.484802 872.570679 834 C 872.540833 824.324707 872.894714 821.604004 874.800964 816.852905 C 876.047119 813.747009 878.867676 809.15979 881.068909 806.659058 C 883.280151 804.146912 887.550964 800.899048 890.612793 799.401001 C 894.547974 797.475708 898.256897 796.55481 903.406616 796.224304 C 908.357117 795.906616 912.422363 796.271606 916.215454 797.374268 C 919.971069 798.466064 923.392334 800.44635 926.770813 803.483826 C 929.52002 805.955627 932.784363 810.120483 934.02478 812.739014 C 935.265259 815.357544 936.727966 820.650024 937.275269 824.5 C 937.99292 829.547974 937.943115 832.685181 937.09668 835.75 C 935.922913 840 935.922913 840 914.394043 840 C 892.865234 840 892.865234 840 893.554382 842.25 C 893.933411 843.487488 894.967529 845.748962 895.852417 847.275513 C 896.737305 848.802002 899.695923 851.164551 902.427002 852.525513 C 906.104919 854.358276 908.962646 854.991516 913.44635 854.967346 C 916.775879 854.949402 921.974976 854.077393 925 853.029541 C 928.025024 851.98175 930.863098 851.482056 931.306946 851.919189 C 931.750793 852.356262 932.71875 855.315979 933.458069 858.496338 C 934.775696 864.16449 934.753418 864.324036 932.330627 866.569397 C 930.971191 867.829285 927.753174 869.604858 925.179504 870.515259 C 922.605774 871.425598 916.674988 872.33606 912 872.538452 Z M 457.655029 871.795959 C 434.098419 872.059875 431.054474 871.911621 429.571014 870.428162 C 428.339996 869.197144 427.984314 867.362671 428.203613 863.375549 C 428.489594 858.176086 429.027039 857.262451 443.5 837.372559 C 451.75 826.03479 458.649994 816.362793 458.833344 815.879272 C 459.016663 815.39563 453.369171 815 446.283325 815 C 437.596283 815 433.009155 814.609131 432.200012 813.799988 C 431.539429 813.139404 431 809.963135 431 806.734253 C 431 803.508118 431.46582 799.998108 432.035187 798.934265 C 433.016846 797.100037 434.38092 797 458.41275 797 C 479.730713 797 483.953003 797.238403 485.001251 798.501526 C 485.796356 799.459534 486.086456 801.943787 485.802765 805.364746 C 485.424469 809.926453 484.483215 811.977905 479.49472 819.113281 C 476.269836 823.725952 471.370697 830.650024 468.607727 834.5 C 465.844788 838.349976 461.765259 843.966187 459.542114 846.980469 C 457.318939 849.99469 455.350006 852.80719 455.166656 853.230469 C 454.983337 853.653687 461.572693 854 469.809692 854 C 482.54364 854 484.876892 854.236816 485.393005 855.581787 C 485.726868 856.451782 485.993103 859.714233 485.98468 862.831787 C 485.976257 865.949341 485.543182 869.174988 485.022308 870 C 484.227478 871.258911 479.828186 871.547607 457.655029 871.795959 Z M 584.808899 872 C 576.516113 872 574.707214 871.707275 573.105896 870.105835 C 571.859375 868.859375 569.949402 862.790527 567.519714 852.355835 C 565.489136 843.635132 560.218933 821.735046 555.808167 803.689026 C 551.397461 785.642944 548.098694 770.567993 548.477661 770.189026 C 548.856567 769.810059 553.890442 769.5 559.66394 769.5 C 568.515991 769.5 570.362244 769.774902 571.443665 771.253845 C 572.149048 772.218506 575.820984 788.551025 579.603577 807.548462 C 583.77478 828.497742 586.761841 841.383057 587.194824 840.294556 C 587.587463 839.307556 591.076355 824.099976 594.947998 806.5 C 600.701111 780.347351 602.374268 774.180237 604.104492 772.75 C 605.745789 771.393311 608.09082 771 614.539368 771 C 620.416077 771 623.27655 771.419373 624.286194 772.429077 C 625.072205 773.215027 626.516357 777.827515 627.495544 782.679077 C 628.47467 787.530579 630.754639 798.474976 632.562073 807 C 634.369507 815.525024 636.669983 826.662231 637.674194 831.749451 C 638.678406 836.83667 639.747314 840.999146 640.049622 840.999451 C 640.351929 840.999756 643.202759 827.612488 646.384827 811.25 C 649.566895 794.887512 652.620728 779.355957 653.171204 776.735474 C 653.721619 774.114929 654.840393 771.302429 655.65741 770.485474 C 656.730896 769.411987 659.427368 769 665.38031 769 C 670.869507 769 674.257629 769.467896 675.535767 770.402466 C 677.282227 771.679504 677.351318 772.283325 676.308716 777.152466 C 675.678955 780.093628 671.732788 796.224976 667.53949 813 C 663.34613 829.775024 658.493774 849.103027 656.756409 855.951172 C 654.964539 863.014343 652.819214 869.180786 651.798828 870.201172 C 650.310669 871.689331 648.299683 872 640.154968 872 C 632.015625 872 630.050659 871.696777 628.813293 870.25 C 627.990112 869.287476 626.143127 864 624.708923 858.5 C 623.274719 853 620.773132 842.650024 619.14978 835.5 C 617.526489 828.349976 615.417297 818.939636 614.462769 814.588074 C 612.727173 806.676147 612.727173 806.676147 609.957764 820.088074 C 608.43457 827.4646 605.147583 841.586548 602.653381 851.470093 C 599.616577 863.503845 597.540283 869.862976 596.368103 870.720093 C 595.227661 871.554016 591.199829 872 584.808899 872 Z M 958.787476 871.825317 C 952.209839 872.055725 949.135315 871.778564 948.25 870.875366 C 947.28418 869.889954 947 858.40448 947 820.356689 C 947 771.113403 947 771.113403 949.222534 769.556702 C 950.744202 768.490845 953.760498 768 958.788269 768 C 962.827026 768 967.001892 768.46582 968.065735 769.035156 C 969.938171 770.037292 969.999512 771.643127 969.98468 819.285156 C 969.975586 848.515015 969.584717 869.109131 969.022156 870 C 968.318237 871.114746 965.689575 871.583557 958.787476 871.825317 Z M 770.306641 857 C 773.228699 857 775.844299 856.233398 778.102112 854.715332 C 781.297546 852.566772 781.518005 852.050842 781.801819 846.056396 C 782.01123 841.634094 781.705017 839.42926 780.801819 838.856384 C 780.085815 838.402222 777.977234 838.023743 776.116028 838.01532 C 774.254822 838.006897 770.961731 838.530396 768.798096 839.17865 C 766.634399 839.826904 763.99469 841.462585 762.932068 842.813477 C 761.869446 844.164429 761 846.804504 761 848.680298 C 761 850.96814 761.808044 852.898987 763.454529 854.545471 C 765.316406 856.407288 766.970947 857 770.306641 857 Z M 165.884857 853.996277 C 169.731873 853.993713 172.531372 853.363708 174.775391 851.995483 C 178.050781 849.998535 178.050781 849.998535 177.775391 834.355591 C 177.5 818.712769 177.5 818.712769 174.676666 816.606384 C 172.713455 815.141724 170.374786 814.5 167 814.5 C 163.674454 814.5 161.257904 815.149902 159.323334 816.564575 C 157.770508 817.700012 155.6577 820.324646 154.628235 822.397034 C 153.598755 824.469421 152.531067 828.9729 152.255585 832.404724 C 151.921448 836.567261 152.297852 840.512695 153.38623 844.256592 C 154.419556 847.811157 155.980499 850.626099 157.643723 851.934387 C 159.591263 853.466309 161.720444 853.999023 165.884857 853.996277 Z M 310.25 826.630249 C 311.487488 826.298645 316.887512 826.021179 322.25 826.013672 C 331.407623 826.000854 332 825.875488 332 823.950317 C 332 822.822998 331.327576 820.600342 330.505707 819.011047 C 329.683838 817.421753 328.008728 815.419067 326.783203 814.560669 C 325.557678 813.702332 322.600525 813 320.211761 813 C 317.822968 813 314.999573 813.465088 313.937531 814.033447 C 312.875488 814.601807 311.105072 816.833862 310.003265 818.993591 C 308.901489 821.15332 308 823.890747 308 825.076782 C 308 826.825134 308.425842 827.119141 310.25 826.630249 Z M 391.673096 826.154541 C 398.177887 825.954041 403.684601 825.615112 403.910217 825.401428 C 404.135834 825.187744 403.787506 823.234131 403.136139 821.060059 C 402.484802 818.886047 400.777008 816.183167 399.341064 815.05365 C 397.74295 813.79657 395.249329 813 392.912201 813 C 390.812256 813 387.914185 813.537598 386.472046 814.194702 C 385.029938 814.851746 383.197693 816.650757 382.400421 818.192505 C 381.60318 819.734253 380.702301 822.238525 380.398529 823.757446 C 379.846161 826.519165 379.846161 826.519165 391.673096 826.154541 Z M 521.654053 826.185547 C 528.14856 826.012634 533.655273 825.67804 533.891357 825.442017 C 534.127319 825.205994 533.787476 823.234131 533.136108 821.060059 C 532.484802 818.886047 530.776978 816.183167 529.341064 815.05365 C 527.543579 813.639709 525.292664 813.009888 522.115112 813.031799 C 519.576782 813.049316 516.791199 813.611816 515.924866 814.281799 C 515.058533 814.951782 513.602539 816.64856 512.689392 818.052246 C 511.776245 819.456055 510.762878 821.93103 510.437531 823.552246 C 509.845947 826.5 509.845947 826.5 521.654053 826.185547 Z M 704.654114 826.185547 C 711.14856 826.012634 716.612793 825.720581 716.796814 825.536499 C 716.980896 825.352478 716.641052 823.380615 716.041626 821.154541 C 715.4422 818.928528 713.776978 816.183105 712.341064 815.053589 C 710.74292 813.79657 708.249329 813 705.91217 813 C 703.812256 813 701.022278 813.488342 699.712341 814.085205 C 698.402344 814.682068 696.577209 816.44574 695.656433 818.004517 C 694.735657 819.563232 693.726624 822.112427 693.414124 823.669312 C 692.845947 826.5 692.845947 826.5 704.654114 826.185547 Z M 905.785278 826 C 917.787415 826 917.787415 826 916.869934 821.75 C 916.346375 819.324829 914.865295 816.533936 913.420471 815.25 C 911.590149 813.623535 909.638611 813 906.378479 813 C 903.89801 813 901.002747 813.463379 899.94458 814.029663 C 898.886475 814.595947 897.368591 816.320313 896.571594 817.861572 C 895.774597 819.402832 894.821106 821.864502 894.45282 823.331909 C 893.783203 826 893.783203 826 905.785278 826 Z"/>
</svg>
